<mxfile host="app.diagrams.net" modified="2023-08-07T23:42:31.573Z" agent="Mozilla/5.0 (Windows NT 10.0; Win64; x64) AppleWebKit/537.36 (KHTML, like Gecko) Chrome/115.0.0.0 Safari/537.36" etag="vPAIPc7vT8W5pjQpUbEY" version="21.6.6" type="device">
  <diagram name="Page-1" id="iGl-K6CeYkl5nsBy4zew">
    <mxGraphModel dx="1434" dy="750" grid="1" gridSize="10" guides="1" tooltips="1" connect="1" arrows="1" fold="1" page="1" pageScale="1" pageWidth="827" pageHeight="1169" math="0" shadow="0">
      <root>
        <mxCell id="0" />
        <mxCell id="1" parent="0" />
        <mxCell id="T_uu0p4OpImOTo_Fwofj-11" value="" style="edgeStyle=orthogonalEdgeStyle;rounded=0;orthogonalLoop=1;jettySize=auto;html=1;" parent="1" source="T_uu0p4OpImOTo_Fwofj-1" target="T_uu0p4OpImOTo_Fwofj-2" edge="1">
          <mxGeometry relative="1" as="geometry" />
        </mxCell>
        <mxCell id="T_uu0p4OpImOTo_Fwofj-1" value="관리자" style="shape=umlActor;verticalLabelPosition=bottom;verticalAlign=top;html=1;outlineConnect=0;" parent="1" vertex="1">
          <mxGeometry x="50" y="135" width="30" height="60" as="geometry" />
        </mxCell>
        <mxCell id="T_uu0p4OpImOTo_Fwofj-2" value="설문주제관리" style="ellipse;whiteSpace=wrap;html=1;" parent="1" vertex="1">
          <mxGeometry x="160" y="130" width="140" height="70" as="geometry" />
        </mxCell>
        <mxCell id="T_uu0p4OpImOTo_Fwofj-3" value="설문목록관리" style="ellipse;whiteSpace=wrap;html=1;" parent="1" vertex="1">
          <mxGeometry x="350" y="130" width="140" height="70" as="geometry" />
        </mxCell>
        <mxCell id="T_uu0p4OpImOTo_Fwofj-4" value="설문결과확인" style="ellipse;whiteSpace=wrap;html=1;" parent="1" vertex="1">
          <mxGeometry x="350" y="20" width="140" height="70" as="geometry" />
        </mxCell>
        <mxCell id="T_uu0p4OpImOTo_Fwofj-6" value="&amp;lt;&amp;lt;extend&amp;gt;&amp;gt;" style="html=1;verticalAlign=bottom;labelBackgroundColor=none;endArrow=open;endFill=0;dashed=1;rounded=0;exitX=1;exitY=0.5;exitDx=0;exitDy=0;entryX=0;entryY=0.5;entryDx=0;entryDy=0;" parent="1" source="T_uu0p4OpImOTo_Fwofj-2" target="T_uu0p4OpImOTo_Fwofj-3" edge="1">
          <mxGeometry width="160" relative="1" as="geometry">
            <mxPoint x="340" y="300" as="sourcePoint" />
            <mxPoint x="500" y="300" as="targetPoint" />
          </mxGeometry>
        </mxCell>
        <mxCell id="T_uu0p4OpImOTo_Fwofj-7" value="&amp;lt;&amp;lt;extend&amp;gt;&amp;gt;" style="html=1;verticalAlign=bottom;labelBackgroundColor=none;endArrow=open;endFill=0;dashed=1;rounded=0;exitX=1;exitY=0;exitDx=0;exitDy=0;entryX=0;entryY=1;entryDx=0;entryDy=0;" parent="1" source="T_uu0p4OpImOTo_Fwofj-2" target="T_uu0p4OpImOTo_Fwofj-4" edge="1">
          <mxGeometry width="160" relative="1" as="geometry">
            <mxPoint x="340" y="300" as="sourcePoint" />
            <mxPoint x="500" y="300" as="targetPoint" />
          </mxGeometry>
        </mxCell>
        <mxCell id="T_uu0p4OpImOTo_Fwofj-8" value="설문작성" style="ellipse;whiteSpace=wrap;html=1;" parent="1" vertex="1">
          <mxGeometry x="160" y="250" width="140" height="70" as="geometry" />
        </mxCell>
        <mxCell id="T_uu0p4OpImOTo_Fwofj-10" value="" style="edgeStyle=orthogonalEdgeStyle;rounded=0;orthogonalLoop=1;jettySize=auto;html=1;" parent="1" source="T_uu0p4OpImOTo_Fwofj-9" target="T_uu0p4OpImOTo_Fwofj-8" edge="1">
          <mxGeometry relative="1" as="geometry" />
        </mxCell>
        <mxCell id="T_uu0p4OpImOTo_Fwofj-9" value="고객" style="shape=umlActor;verticalLabelPosition=bottom;verticalAlign=top;html=1;outlineConnect=0;" parent="1" vertex="1">
          <mxGeometry x="50" y="255" width="30" height="60" as="geometry" />
        </mxCell>
      </root>
    </mxGraphModel>
  </diagram>
</mxfile>
